<svg width="36" height="19" viewBox="0 0 36 19" fill="none" xmlns="http://www.w3.org/2000/svg">
<g id="MPSymbol" clip-path="url(#clip0_1630_55)">
<path id="Vector" d="M23.0491 1.22821C22.9546 4.90544 22.3538 7.95943 22.3538 7.95943C21.959 10.0107 15.5194 12.6547 15.6606 9.63874L15.8535 8.70706C16.0373 7.71064 15.2825 7.88835 14.599 8.27803C10.7215 10.4067 7.59236 14.0611 6.43495 18.2562C6.28866 18.8312 5.97795 19 5.43808 19H1.09845C0.192202 19 -0.198779 18.6763 0.0976933 17.7205C2.79313 8.25518 12.1676 0.662091 21.9564 0.00458195C22.6464 -0.0411137 23.0504 0.247023 23.0504 1.22821H23.0491Z" fill="url(#paint0_radial_1630_55)"/>
<path id="Vector_2" d="M35.9988 1.2236C35.8406 6.73613 34.6135 12.6021 32.3047 18.1969C32.1062 18.6897 31.922 19 31.1827 19H26.9372C26.2537 19 25.6764 18.9493 26.1291 17.7865C26.6156 16.5376 27.8802 13.2823 28.5106 10.26C28.6326 9.67353 28.3615 9.17067 27.648 9.79767L23.4545 13.4849C20.8214 15.8004 17.733 15.3381 16.4255 14.06C15.118 12.7832 15.3043 11.1745 15.8633 8.67667C15.5948 10.5323 18.9665 10.9364 21.3765 8.816L30.8078 0.5206C31.3111 0.0785334 31.638 0 32.197 0H34.9832C35.7679 0 36.0196 0.4826 35.9988 1.2236Z" fill="#0050FF"/>
</g>
<defs>
<radialGradient id="paint0_radial_1630_55" cx="0" cy="0" r="1" gradientUnits="userSpaceOnUse" gradientTransform="translate(19.1147 11.1645) scale(7.88436 7.73018)">
<stop stop-color="#002E85"/>
<stop offset="1" stop-color="#0050FF"/>
</radialGradient>
<clipPath id="clip0_1630_55">
<rect width="36" height="19" fill="white"/>
</clipPath>
</defs>
</svg>
