<svg width="129" height="17" viewBox="0 0 129 17" fill="none" xmlns="http://www.w3.org/2000/svg">
<g id="_MPTypography">
<path id="Vector" d="M6.41678 8.60178H5.97865L2.22357 3.39421V12.0859H0V0.132812H2.5604L6.24837 5.27235L9.93634 0.132812H12.4796V12.0859H10.2561V3.41155L6.41547 8.60178H6.41678Z" fill="#16181B"/>
<path id="Vector_2" d="M18.4075 10.323C19.168 10.323 20.1476 10.0322 20.6388 9.53721L21.9564 10.8526C21.0599 11.7585 19.6578 12.2188 18.3732 12.2188C15.5004 12.2188 13.7933 10.4084 13.7933 7.72684C13.7933 5.0453 15.5175 3.32031 18.2214 3.32031C20.7734 3.32031 22.4633 4.8065 22.4633 7.74285C22.4633 7.999 22.4462 8.25514 22.429 8.52863H15.9228C16.0575 9.57056 16.9368 10.3217 18.4075 10.3217V10.323ZM18.2887 5.16537C17.1559 5.16537 16.278 5.71235 15.9558 6.80498H20.4513C20.3166 5.71235 19.4875 5.16537 18.2887 5.16537Z" fill="#16181B"/>
<path id="Vector_3" d="M27.8658 10.323C28.6262 10.323 29.6059 10.0322 30.097 9.53721L31.4146 10.8526C30.5182 11.7585 29.1161 12.2188 27.8315 12.2188C24.9586 12.2188 23.2515 10.4084 23.2515 7.72684C23.2515 5.0453 24.9758 3.32031 27.6796 3.32031C30.2317 3.32031 31.9216 4.8065 31.9216 7.74285C31.9216 7.999 31.9044 8.25514 31.8873 8.52863H25.3811C25.5158 9.57056 26.395 10.3217 27.8658 10.3217V10.323ZM27.747 5.16537C26.6142 5.16537 25.7362 5.71235 25.4141 6.80498H29.9095C29.7749 5.71235 28.9458 5.16537 27.747 5.16537Z" fill="#16181B"/>
<path id="Vector_4" d="M36.0196 3.59593H38.2888V5.37162H36.0027V9.0419C36.0027 9.83726 36.4197 10.2257 37.0701 10.2257C37.3868 10.2257 37.7375 10.124 38.0542 9.97202L38.6212 11.7305C37.9877 12.0014 37.4703 12.0859 36.769 12.0859C35.0668 12.0859 33.9824 11.0713 33.9824 9.0419V5.37162H32.447V3.59593H33.9824V1.41463L36.0183 1.19531V3.59725L36.0196 3.59593Z" fill="#16181B"/>
<path id="Vector_5" d="M40.5916 0C41.1828 0 41.7739 0.407779 41.7739 1.2074C41.7739 2.00702 41.1828 2.4148 40.5916 2.4148C40.0005 2.4148 39.4094 2.02429 39.4094 1.2074C39.4094 0.390512 40.0005 0 40.5916 0ZM41.5931 11.9531H39.5902V3.53719H41.5931V11.9531Z" fill="#16181B"/>
<path id="Vector_6" d="M49.5908 7.48285C49.5908 6.19836 48.8893 5.22162 47.6048 5.22162C46.3204 5.22162 45.5015 6.30005 45.5015 7.58587V11.9531H43.4817V3.50897H45.3007L45.4337 4.5874C46.2852 3.64545 47.0859 3.32031 48.1382 3.32031C50.0746 3.32031 51.6263 4.81085 51.6263 7.46545V11.9531H49.5895V7.48285H49.5908Z" fill="#16181B"/>
<path id="Vector_7" d="M61.8714 3.8181L60.8341 5.04799C61.5526 5.91904 61.7878 6.68739 61.7878 7.55844C61.7878 9.06178 61.1019 10.0862 59.7471 10.7172C61.486 11.3495 61.7878 12.63 61.7878 13.4491C61.7878 15.8395 59.4962 17 57.2897 17C54.4298 17 52.7576 15.5313 52.8412 13.1236H54.8649C54.7813 14.2855 56.0028 14.9844 57.2897 14.9844C58.4263 14.9844 59.6648 14.4895 59.6648 13.4477C59.6648 12.4059 58.8626 11.791 57.3236 11.791C54.5971 11.791 52.8085 10.2036 52.8085 7.55578C52.8085 4.72117 55.0164 3.2872 57.3236 3.2872C57.9586 3.2872 58.8783 3.42326 59.4479 3.81677L60.3677 2.65625L61.8727 3.81677L61.8714 3.8181ZM54.8479 7.55711C54.8479 9.02577 55.9858 9.87948 57.3236 9.87948C58.6614 9.87948 59.7484 8.99108 59.7484 7.55711C59.7484 6.12313 58.6614 5.2174 57.3236 5.2174C55.9858 5.2174 54.8479 5.98574 54.8479 7.55711Z" fill="#16181B"/>
<path id="Vector_8" d="M65.6612 11.9531H63.4491V0.0173155C65.2751 0.0173155 67.1521 0 68.978 0C71.8603 0 73.3014 2.09786 73.3014 4.19438C73.3014 6.29091 71.8603 8.40608 68.978 8.43938H65.6612V11.9518V11.9531ZM68.978 6.37749C70.3851 6.37749 71.0893 5.3199 71.0893 4.26365C71.0893 3.20739 70.3851 2.1498 68.978 2.1498H65.6612V6.37882H68.978V6.37749Z" fill="#16181B"/>
<path id="Vector_9" d="M82.627 3.52617V11.9621H80.7071L80.6067 10.7297C80.1228 11.7228 78.8707 12.2188 77.9356 12.2188C75.481 12.2188 73.6955 10.6962 73.6955 7.73545C73.6955 4.77465 75.5814 3.32031 77.9865 3.32031C79.1055 3.32031 80.1398 3.85098 80.608 4.6891L80.6745 3.52617H82.6283H82.627ZM75.7314 7.73545C75.7314 9.3435 76.8166 10.3019 78.1691 10.3019C79.772 10.3019 80.5728 9.01868 80.5728 7.73545C80.5728 6.45221 79.772 5.18635 78.1691 5.18635C76.8166 5.18635 75.7314 6.12739 75.7314 7.73545Z" fill="#16181B"/>
<path id="Vector_10" d="M88.4892 12.2188C86.0798 12.2188 84.0733 10.7642 84.0733 7.78691C84.0733 4.80962 86.0785 3.32031 88.4892 3.32031C89.686 3.32031 90.5628 3.66256 91.4897 4.56898L90.1915 5.95535C89.7031 5.49278 89.1132 5.28824 88.5234 5.28824C87.1252 5.28824 86.1298 6.31498 86.1298 7.78691C86.1298 9.39521 87.2081 10.2174 88.4892 10.2174C89.1462 10.2174 89.7873 10.0463 90.31 9.51553L91.6925 10.8845C90.7313 11.8431 89.7202 12.2188 88.4905 12.2188H88.4892Z" fill="#16181B"/>
<path id="Vector_11" d="M94.66 6.96426L97.4444 3.61722H99.8934V3.7361L96.522 7.54015L100.363 11.8012V11.9531H97.8965L94.6587 8.18341V11.9531H92.612V0.132812H94.6587V6.96294L94.66 6.96426Z" fill="#16181B"/>
<path id="Vector_12" d="M109.031 3.52617V11.9621H107.111L107.011 10.7297C106.527 11.7228 105.275 12.2188 104.34 12.2188C101.885 12.2188 100.1 10.6962 100.1 7.73545C100.1 4.77465 101.986 3.32031 104.391 3.32031C105.51 3.32031 106.544 3.85098 107.012 4.6891L107.079 3.52617H109.033H109.031ZM102.136 7.73545C102.136 9.3435 103.221 10.3019 104.573 10.3019C106.176 10.3019 106.977 9.01868 106.977 7.73545C106.977 6.45221 106.176 5.18635 104.573 5.18635C103.221 5.18635 102.136 6.12739 102.136 7.73545Z" fill="#16181B"/>
<path id="Vector_13" d="M119.54 3.8181L118.503 5.04799C119.222 5.91904 119.457 6.68739 119.457 7.55844C119.457 9.06178 118.771 10.0862 117.416 10.7172C119.155 11.3495 119.457 12.63 119.457 13.4491C119.457 15.8395 117.165 17 114.959 17C112.099 17 110.427 15.5313 110.51 13.1236H112.534C112.45 14.2855 113.671 14.9844 114.959 14.9844C116.095 14.9844 117.334 14.4895 117.334 13.4477C117.334 12.4059 116.532 11.791 114.993 11.791C112.266 11.791 110.478 10.2036 110.478 7.55578C110.478 4.72117 112.686 3.2872 114.993 3.2872C115.628 3.2872 116.547 3.42326 117.117 3.81677L118.037 2.65625L119.542 3.81677L119.54 3.8181ZM112.517 7.55711C112.517 9.02577 113.655 9.87948 114.993 9.87948C116.331 9.87948 117.417 8.99108 117.417 7.55711C117.417 6.12313 116.331 5.2174 114.993 5.2174C113.655 5.2174 112.517 5.98574 112.517 7.55711Z" fill="#16181B"/>
<path id="Vector_14" d="M124.944 10.323C125.705 10.323 126.684 10.0322 127.175 9.53721L128.493 10.8526C127.597 11.7585 126.194 12.2188 124.91 12.2188C122.037 12.2188 120.33 10.4084 120.33 7.72684C120.33 5.0453 122.054 3.32031 124.758 3.32031C127.31 3.32031 129 4.8065 129 7.74285C129 7.999 128.983 8.25514 128.966 8.52863H122.46C122.594 9.57056 123.473 10.3217 124.944 10.3217V10.323ZM124.825 5.16537C123.693 5.16537 122.815 5.71235 122.493 6.80498H126.988C126.853 5.71235 126.024 5.16537 124.825 5.16537Z" fill="#16181B"/>
</g>
</svg>
